<svg version="1.1" id="Layer_1" xmlns="http://www.w3.org/2000/svg" xmlns:xlink="http://www.w3.org/1999/xlink" x="0px" y="0px"
	 width="100%" viewBox="0 0 1024 1024" enable-background="new 0 0 1024 1024" xml:space="preserve">
<path fill="#000000" opacity="1.000000" stroke="none" 
	d="
M479.000000,1025.000000 
	C319.333344,1025.000000 160.166672,1025.000000 1.000000,1025.000000 
	C1.000000,683.666687 1.000000,342.333344 1.000000,1.000000 
	C342.333344,1.000000 683.666687,1.000000 1025.000000,1.000000 
	C1025.000000,342.333344 1025.000000,683.666687 1025.000000,1025.000000 
	C843.166687,1025.000000 661.333313,1025.000000 479.000000,1025.000000 
M670.076538,607.023438 
	C657.776794,607.023438 645.477112,607.023438 633.002380,607.023438 
	C633.002380,611.296997 633.264709,615.800964 632.931824,620.260498 
	C632.567322,625.143494 633.552551,628.249695 639.483582,626.930176 
	C639.483582,636.354370 639.483582,645.506775 639.483582,654.855347 
	C637.508118,654.954834 635.422668,655.059875 632.997437,655.182068 
	C632.997437,660.846680 633.294250,666.161194 632.910828,671.426270 
	C632.554260,676.322388 634.550720,677.751526 639.657166,677.224792 
	C639.529480,683.772583 639.408447,690.320496 639.271179,696.868103 
	C639.209900,699.789673 638.982117,702.714417 639.066711,705.630859 
	C639.209900,710.567566 639.726685,715.498962 639.721985,720.432251 
	C639.719299,723.278564 640.260681,725.043152 643.499817,725.011047 
	C647.658386,724.969788 651.821777,724.928528 655.975952,725.081848 
	C660.429138,725.246155 662.267822,723.359314 662.071472,718.831299 
	C661.762207,711.702515 661.793274,704.557617 661.743347,697.419128 
	C661.697021,690.793945 661.733398,684.168213 661.733398,677.116943 
	C666.107361,677.116943 670.533569,677.116943 675.307495,677.737244 
	C680.249451,678.504456 682.300720,682.557617 682.793213,686.410217 
	C683.792053,694.223389 683.872803,702.178711 683.953186,710.079285 
	C684.106750,725.161926 683.999207,724.937744 699.306274,725.112183 
	C704.279541,725.168823 704.839111,722.176514 704.844055,718.959534 
	C704.854675,712.037170 704.089539,705.115356 704.046936,698.190796 
	C703.923157,678.068542 704.076355,657.944458 703.911682,637.822754 
	C703.887512,634.867004 702.725708,631.920593 702.058167,628.231934 
	C701.061768,626.613342 700.113098,624.963013 699.061157,623.381348 
	C692.388977,613.348816 683.378540,607.340515 670.076538,607.023438 
M537.969666,645.168518 
	C537.648621,642.600952 537.010620,640.026733 537.064819,637.467102 
	C537.238708,629.257141 537.773499,621.055054 537.966736,612.845154 
	C538.125122,606.116638 537.996948,606.113647 530.917236,605.371338 
	C532.209106,604.226990 533.330811,602.734497 534.824951,602.004089 
	C539.134399,599.897644 543.593994,598.098450 548.006348,597.085388 
	C548.006042,602.418335 548.099121,607.753601 547.966736,613.083252 
	C547.898926,615.816101 548.838135,617.180847 551.683044,617.005127 
	C552.963989,616.925964 554.253906,616.991638 555.726196,616.991638 
	C555.726196,627.854309 555.726196,638.262634 555.726196,648.641174 
	C548.002808,649.427551 548.002930,649.427551 548.001953,657.143188 
	C548.001709,659.143127 548.000854,661.143127 547.999695,663.143066 
	C547.994995,671.268066 547.994934,671.268066 556.165955,672.625916 
	C556.165955,679.352539 556.165955,686.176941 556.029785,693.903381 
	C556.029785,696.505493 556.029785,699.107605 556.029785,701.642883 
	C548.046265,702.367737 548.045349,702.367737 548.019104,710.031494 
	C548.007751,713.355713 548.015503,716.680115 547.988037,720.004150 
	C547.959595,723.444824 549.437805,725.131653 553.081665,725.030945 
	C559.720215,724.847534 566.365234,724.898987 573.934937,724.974670 
	C577.931824,724.993225 581.962708,725.355713 585.919128,724.964600 
	C596.978943,723.871582 607.584412,721.129883 615.106995,712.238220 
	C620.398865,705.983215 623.935059,698.809143 624.574951,690.211914 
	C624.829163,686.796753 624.269714,685.982788 621.278809,685.995117 
	C616.116028,686.016418 610.951721,686.074036 605.790771,685.975342 
	C603.053650,685.923035 601.728149,686.933105 601.994324,689.783936 
	C602.505493,695.259460 599.228760,698.793640 594.845642,700.489563 
	C590.531982,702.158630 585.641052,702.335754 580.267578,703.038147 
	C579.513062,702.517456 578.108887,702.006653 578.100891,701.474731 
	C577.965393,692.491699 577.889038,683.502930 578.139832,674.524902 
	C578.173340,673.326477 579.941284,671.316528 581.106262,671.158508 
	C586.150818,670.474182 591.267517,670.092957 596.361938,670.048828 
	C611.104187,669.921143 610.973694,670.004944 611.076782,655.375305 
	C611.105286,651.329346 610.108215,649.669495 605.781677,649.927246 
	C596.545898,650.477417 587.285461,650.613525 577.974304,649.993774 
	C577.974304,638.750977 577.974304,627.508179 577.974304,616.005981 
	C581.306458,616.005981 583.975647,615.763306 586.585144,616.054871 
	C592.653992,616.732971 598.836487,617.445557 601.637451,624.198120 
	C602.669495,626.686096 602.852417,630.422241 604.654175,631.468811 
	C606.920898,632.785400 610.450317,631.944946 613.435486,632.001587 
	C615.264771,632.036255 617.103210,631.899719 618.923523,632.032104 
	C621.918762,632.249939 623.070557,631.019470 623.053467,627.980408 
	C622.997498,618.057007 618.116455,610.421082 611.209595,604.129761 
	C603.684753,597.275635 594.552185,595.326416 584.293701,595.800903 
	C573.253540,596.311462 562.140564,595.249878 551.326111,594.246765 
	C569.662170,582.548523 587.371826,569.775085 607.813171,561.077942 
	C606.492126,560.261108 605.007507,559.673035 604.025940,560.140747 
	C595.627197,564.142395 587.303101,568.302612 578.993958,572.489441 
	C576.217285,573.888550 573.546082,575.497437 570.831177,577.018433 
	C557.266296,584.618103 543.640015,592.111206 530.163879,599.865417 
	C522.791870,604.107300 513.959656,600.250000 513.799927,592.029419 
	C513.679993,585.857727 514.641052,579.665039 515.124939,573.428955 
	C521.325195,573.131104 526.480835,573.326599 531.482971,572.542664 
	C539.657898,571.261414 547.853027,569.774841 555.813965,567.562683 
	C562.883728,565.598267 570.087219,563.319885 576.448181,559.774414 
	C587.611023,553.552551 598.171021,546.249756 608.990723,539.411133 
	C617.865479,533.801819 625.736511,527.042847 632.663696,519.142517 
	C640.624695,510.063202 649.112183,501.410034 656.585815,491.951416 
	C661.583923,485.625732 665.615845,478.427582 669.346985,471.239258 
	C673.456665,463.321930 676.738037,454.973846 680.358765,446.803864 
	C682.297729,442.428436 684.191650,438.032990 686.159180,433.524445 
	C694.932312,438.228546 703.067017,442.591248 711.202515,446.952362 
	C719.727661,451.522400 728.284241,456.035187 736.765503,460.685303 
	C740.588501,462.781372 744.494873,465.124512 743.764038,470.410400 
	C743.003540,475.910431 740.115784,480.174805 735.221436,482.922607 
	C726.763611,487.671082 718.275574,492.365906 709.245789,497.414948 
	C707.812012,498.690338 706.522400,500.195557 704.919373,501.201233 
	C698.141052,505.453766 691.269409,509.557648 684.431824,513.715881 
	C684.817505,514.385742 685.203247,515.055603 685.588928,515.725403 
	C694.029663,510.555847 702.470337,505.386261 711.568298,499.847931 
	C714.969604,498.493652 718.616882,497.552704 721.723938,495.703918 
	C729.551697,491.046204 737.150818,486.002258 744.793945,481.039764 
	C745.536560,480.557617 746.069336,479.627502 746.494385,478.799988 
	C751.719543,468.625397 748.351135,460.209961 737.956787,455.645630 
	C731.814575,452.948425 726.123108,449.224670 720.017090,445.969818 
	C720.017090,445.969818 720.237976,445.816742 720.237976,445.816742 
	C720.237976,445.816742 720.137268,446.034851 719.421814,445.857574 
	C709.356995,441.023407 699.249390,436.274231 689.280945,431.248810 
	C688.017334,430.611786 686.652100,428.471832 686.742676,427.122711 
	C687.466614,416.336670 688.567078,405.674286 685.459229,394.929993 
	C683.342590,387.612244 680.982666,380.723450 674.981750,375.711823 
	C667.261902,369.264618 659.253418,364.085571 648.459412,363.447815 
	C638.742554,362.873688 629.260437,362.330353 619.609619,364.826691 
	C619.056885,365.100739 618.504211,365.374786 617.508301,365.994537 
	C617.343262,366.083160 617.178162,366.171783 616.392151,366.115692 
	C612.996765,366.880768 609.601379,367.645874 604.713928,368.747162 
	C606.595642,370.085815 607.758728,371.603302 608.863037,371.561676 
	C611.538269,371.460938 614.186096,370.633820 617.501282,369.986908 
	C617.708984,370.065308 617.916626,370.143738 618.224426,370.521088 
	C618.224426,370.521088 618.639709,370.596191 618.639709,370.596191 
	C618.639709,370.596191 618.878967,370.221069 619.538574,369.928284 
	C619.777466,369.899567 620.016296,369.870880 620.714478,370.328705 
	C622.045898,369.979614 623.377319,369.630554 625.512329,369.629089 
	C625.778931,369.747742 626.045593,369.866425 626.294434,370.260101 
	C626.294434,370.260101 626.611572,370.315613 626.611572,370.315613 
	C626.611572,370.315613 626.638794,369.947296 627.573608,369.608612 
	C627.904297,369.630493 628.234985,369.652405 628.466003,369.814270 
	C628.466003,369.814270 628.501221,369.671082 629.452515,369.410034 
	C631.687256,369.468353 633.921936,369.526672 636.345947,369.970764 
	C636.848938,370.007843 637.351868,370.044922 638.547668,370.198090 
	C639.006409,370.291870 639.465088,370.385620 640.211121,370.967285 
	C641.105896,371.271118 642.000671,371.574951 643.312927,372.441345 
	C649.745728,375.236053 652.756775,381.226074 654.532288,387.069000 
	C657.547241,396.991150 656.059387,407.270630 653.535095,417.224609 
	C652.451660,421.496674 650.755249,425.629578 649.131470,429.744507 
	C646.685120,435.944153 644.058167,442.072510 641.385803,448.526276 
	C634.822449,441.588501 634.842529,441.259521 641.930237,431.835266 
	C640.972351,431.262329 639.552917,429.986725 639.168091,430.246124 
	C631.444214,435.452454 628.804749,428.578918 623.988098,423.349518 
	C624.103210,425.520203 623.832214,426.735901 624.266663,427.594727 
	C627.535645,434.057068 626.324158,437.961548 619.817566,441.506500 
	C619.445312,441.709320 619.230713,442.201447 618.349548,443.295105 
	C620.304443,443.603851 621.954468,444.417206 623.065491,443.949677 
	C629.988586,441.036407 633.655762,442.392426 636.937988,449.424011 
	C638.098572,451.910309 638.837830,454.104340 636.665588,456.716797 
	C634.330383,459.525177 632.592529,462.843140 630.692871,465.998230 
	C626.391479,473.142273 622.787231,480.813263 617.733459,487.371399 
	C610.492981,496.767181 602.397217,505.533722 594.297852,514.225220 
	C590.210754,518.611145 585.350952,522.286255 580.768494,526.198425 
	C577.034607,529.386108 573.173401,532.424072 569.405518,535.572571 
	C565.225952,539.065002 561.513855,543.380737 556.836914,545.954773 
	C548.995789,550.270386 540.695496,553.873718 532.305359,557.022522 
	C527.523621,558.817200 522.181030,559.117554 516.378235,560.227051 
	C516.378235,549.531006 516.086975,539.957703 516.443665,530.408508 
	C517.039917,514.447632 517.942993,498.495605 518.941772,482.553925 
	C519.315918,476.582397 520.665100,470.667358 520.959534,464.696472 
	C521.514282,453.447113 521.610596,442.175415 521.928345,430.913879 
	C522.096985,424.934021 522.330261,418.955994 522.695557,412.206085 
	C523.153137,408.957550 523.860229,405.721497 524.023682,402.458221 
	C524.620728,390.539886 525.059753,378.613403 525.509827,366.688141 
	C525.709045,361.408722 529.787903,357.919922 534.717896,359.614502 
	C540.599915,361.636353 546.361145,364.124542 551.945435,366.876007 
	C567.547791,374.563568 583.011169,382.532440 598.569275,390.310638 
	C610.486816,396.268829 622.464844,402.105927 634.416016,407.996887 
	C634.806641,407.563141 635.197266,407.129425 635.587952,406.695679 
	C634.355774,405.461029 633.305298,403.928497 631.858276,403.046173 
	C627.051453,400.115295 622.133484,397.360992 617.199097,394.646393 
	C611.382507,391.446442 605.567932,388.231323 599.633301,385.260834 
	C594.546936,382.714844 589.184509,380.713074 584.137878,378.096863 
	C576.573059,374.175293 569.245789,369.796295 561.690674,365.854828 
	C554.676208,362.195435 547.672729,358.392822 540.313477,355.567505 
	C536.617615,354.148621 530.850281,353.010803 528.324463,354.872589 
	C524.649963,357.581024 521.741760,362.863617 520.862854,367.495636 
	C519.261169,375.936859 519.190491,384.698608 518.857422,393.341156 
	C518.581665,400.494995 518.847778,407.669678 518.322998,415.522034 
	C518.126099,415.979034 517.775757,416.429016 517.754578,416.893982 
	C517.078125,431.731110 516.517883,446.573975 515.762756,461.406952 
	C514.806396,480.193329 513.654846,498.969727 512.667236,517.754639 
	C512.133118,527.914062 511.843628,538.086548 511.283356,548.244324 
	C511.059235,552.307373 510.403687,556.346680 509.922607,560.590271 
	C489.794922,552.590393 492.950836,535.693909 493.559875,520.074280 
	C492.388062,520.221191 491.812408,520.181152 491.768677,520.314941 
	C488.901062,529.089905 487.119934,538.068176 487.839050,547.325745 
	C488.614136,557.304077 493.723541,564.323547 502.915680,568.509277 
	C507.028931,570.382446 511.063812,572.532715 509.393250,578.542969 
	C508.520721,581.682129 508.222534,585.044678 508.118652,588.320740 
	C507.887268,595.619446 509.980408,601.941589 515.606628,605.953796 
	C513.300171,605.953796 510.993683,605.953796 507.753296,605.953796 
	C507.493073,610.048096 507.094208,613.879944 507.038605,617.716797 
	C506.927734,625.363342 507.006592,625.329529 514.579773,625.548584 
	C515.657837,625.579834 516.720520,626.140198 517.167419,626.271973 
	C517.167419,644.748901 517.167419,662.877014 517.035950,681.826050 
	C517.355408,683.573181 517.934265,685.317810 517.951233,687.067871 
	C518.043823,696.600403 518.008789,706.134338 517.987183,715.667786 
	C517.984253,716.982544 518.150391,718.443420 517.656982,719.585510 
	C515.752197,723.994934 518.343140,724.830505 521.752991,724.939270 
	C525.733826,725.066223 529.728088,724.858704 533.702576,725.065735 
	C536.927002,725.233643 538.070984,724.042969 538.051392,720.778503 
	C537.901550,695.854980 537.887512,670.930664 537.969666,645.168518 
M118.972672,647.172668 
	C118.982155,642.651794 118.998528,638.130920 118.999771,633.610046 
	C119.002991,621.904602 119.078979,610.197876 118.895645,598.495239 
	C118.873367,597.073059 117.723434,594.817017 116.600891,594.446045 
	C114.455078,593.737000 111.946823,593.961121 109.599434,594.056091 
	C102.266457,594.352722 94.938347,594.769775 87.282639,595.156555 
	C87.282639,601.349609 87.282639,608.416992 87.282639,615.794312 
	C90.557098,615.940796 93.613716,616.077454 97.001541,616.228943 
	C97.001541,618.477295 97.001610,620.281250 97.001526,622.085205 
	C97.000618,640.696350 96.976715,659.307617 97.037094,677.918579 
	C97.042648,679.631897 97.585686,681.343567 97.926102,683.895508 
	C97.668526,684.493103 97.190224,685.089172 97.185936,685.688599 
	C97.099197,697.833435 97.004410,709.979370 97.143768,722.122375 
	C97.154739,723.078247 98.834610,724.786987 99.801094,724.832764 
	C105.443520,725.100281 111.120949,725.203735 116.745834,724.798157 
	C117.917458,724.713623 119.867203,722.248230 119.856354,720.892761 
	C119.662003,696.595459 119.220802,672.300110 118.972672,647.172668 
M139.817429,680.762390 
	C139.595612,682.373596 139.143250,683.992249 139.195145,685.594604 
	C139.351685,690.428101 139.951782,695.256775 139.920090,700.084351 
	C139.876801,706.679810 139.294907,713.270508 139.177673,719.867432 
	C139.123459,722.916931 140.234863,725.203247 144.067703,725.023193 
	C148.219040,724.828186 152.393021,724.872681 156.547211,725.047607 
	C160.708969,725.223022 162.291199,723.199646 161.997437,719.315186 
	C161.699722,715.378906 161.095016,711.450134 161.052032,707.513428 
	C160.955383,698.664917 161.052017,689.812256 161.201263,680.963562 
	C161.394333,669.515442 161.737656,658.069763 161.937286,646.621704 
	C161.952591,645.744324 161.342499,644.856018 161.044907,643.157288 
	C161.044907,637.557739 161.044907,631.958130 161.044907,625.983765 
	C170.026184,626.480286 178.915085,623.797791 185.981705,631.897034 
	C186.316696,637.646423 186.865799,643.393066 186.941895,649.145874 
	C187.098160,660.958313 186.916458,672.775208 187.049683,684.588196 
	C187.103470,689.356445 187.795197,694.116211 187.882843,698.885559 
	C188.029007,706.839722 187.922714,714.798523 187.922714,722.729858 
	C195.023331,722.729858 201.277222,722.729858 208.003418,722.729858 
	C208.003418,720.674561 208.003494,718.886658 208.003387,717.098755 
	C208.001862,691.304443 207.909393,665.509705 208.042679,639.716125 
	C208.097443,629.116211 203.884018,620.719238 195.753952,613.273804 
	C192.666565,611.508057 189.764297,608.860168 186.452240,608.165100 
	C180.083588,606.828735 173.493973,606.171814 166.975922,606.001343 
	C154.757584,605.681763 142.524918,605.909424 129.989532,605.909424 
	C130.241943,607.435486 130.793671,609.324280 130.801407,611.215271 
	C130.809525,613.203064 130.211517,615.184998 130.026764,617.183228 
	C129.247162,625.615540 129.591858,625.918396 138.287003,625.047241 
	C138.746994,625.001160 139.237137,625.256042 139.392517,625.293518 
	C139.392517,630.601318 139.387558,635.770386 139.393646,640.939392 
	C139.403519,649.338745 139.341461,657.739197 139.465988,666.136902 
	C139.534561,670.760742 139.921951,675.379883 139.817429,680.762390 
M250.996811,653.230469 
	C251.074020,652.030823 251.214981,650.831421 251.218124,649.631592 
	C251.238327,641.881165 251.228455,634.130676 251.228455,626.431396 
	C258.970306,625.866150 266.314484,625.329895 274.031067,624.766541 
	C273.666473,619.763672 273.031372,615.201599 273.095154,610.649353 
	C273.149139,606.793152 271.608185,605.878113 268.041779,605.921692 
	C255.695969,606.072693 243.345520,606.039856 230.999298,605.883667 
	C224.731873,605.804443 218.453613,605.494202 212.210571,604.944275 
	C207.791611,604.555054 206.670090,606.525024 206.963348,610.471436 
	C207.199875,613.654480 206.994431,616.868652 207.034698,620.068420 
	C207.107437,625.848572 208.409302,627.029541 214.451248,626.999512 
	C219.881470,626.972534 225.311951,626.993835 230.884308,626.993835 
	C230.884308,646.197144 230.884308,664.619202 230.979950,683.968933 
	C230.979950,697.245850 230.979950,710.522766 230.979950,724.998413 
	C236.902344,724.998413 242.461609,725.055908 248.018860,724.974976 
	C250.955353,724.932251 252.201492,723.553284 252.069153,720.343567 
	C251.577377,708.415833 251.286484,696.478027 251.069458,684.541260 
	C250.884430,674.363342 250.904434,664.181702 250.996811,653.230469 
M383.975342,686.247925 
	C384.317719,677.070190 384.782257,667.894836 384.966675,658.713928 
	C385.136017,650.284485 384.540039,641.814453 385.163574,633.427917 
	C385.593964,627.639465 383.017273,621.795410 385.882294,616.007568 
	C386.739746,614.275452 386.315399,611.677979 385.863312,609.611572 
	C385.574554,608.291870 384.182129,606.214050 383.241425,606.190369 
	C373.304565,605.940491 363.359070,606.035706 353.353668,606.035706 
	C353.353668,614.047424 353.353668,621.428101 353.353668,628.838684 
	C355.994659,628.964539 358.271912,629.073120 361.990631,629.250366 
	C361.990631,643.562866 361.990021,657.635437 361.990936,671.708008 
	C361.991333,677.903992 362.059174,684.100769 361.980499,690.295776 
	C361.886108,697.726074 364.647034,703.899536 370.008179,709.739441 
	C374.187012,716.199951 380.230927,720.390808 387.372284,722.611511 
	C400.680481,726.749695 414.490875,724.225220 428.069092,724.836487 
	C428.995758,724.878235 430.810242,722.876892 430.860596,721.764526 
	C431.137268,715.655396 430.992676,709.527161 430.992676,703.027405 
	C420.280334,703.027405 409.968292,703.096191 399.658661,702.969360 
	C397.599457,702.944092 395.410309,702.496277 393.520599,701.685181 
	C387.151428,698.951477 384.666473,693.488586 383.975342,686.247925 
M450.167664,714.660400 
	C455.959259,718.783752 461.637329,723.493774 469.046051,723.911926 
	C481.103699,724.592468 493.193756,724.757568 505.272736,724.880737 
	C506.169739,724.889893 507.824890,722.849792 507.873352,721.709106 
	C508.133484,715.582031 507.996277,709.438049 507.996277,703.042786 
	C499.233124,703.042786 490.841156,702.688782 482.493713,703.146606 
	C474.806091,703.568298 468.090607,702.334595 462.990814,695.168945 
	C462.328705,692.182068 461.170563,689.206543 461.102051,686.206116 
	C460.929840,678.667847 461.344086,671.118286 461.345764,663.573303 
	C461.347382,656.319946 460.938965,649.063782 461.047363,641.813904 
	C461.206238,631.192871 461.681641,620.576660 461.974213,609.957153 
	C462.008728,608.704163 461.741882,607.442932 461.644867,606.483521 
	C450.959015,606.483521 440.689362,606.483521 430.326721,606.483521 
	C430.326721,613.949036 430.326721,621.345337 430.326721,628.714539 
	C439.417023,629.315002 437.816711,629.174683 438.007141,636.786621 
	C438.168579,643.240906 438.355377,649.694519 438.527222,656.148560 
	C438.665283,661.334045 439.570984,666.643311 438.766052,671.678650 
	C437.253235,681.141968 437.757843,690.416382 440.913513,699.226685 
	C442.820709,704.551331 446.765320,709.146179 450.167664,714.660400 
M821.117859,606.020874 
	C808.469482,606.020874 795.821167,606.020874 783.006165,606.020874 
	C783.006165,610.659241 782.856262,615.651062 783.052063,620.629272 
	C783.218079,624.850037 784.674744,627.637695 789.945312,627.109131 
	C795.152283,626.586914 800.452576,626.995056 806.169861,626.995056 
	C806.169861,630.406982 806.169861,633.205933 806.029724,636.916382 
	C806.274902,641.151978 806.757690,645.389282 806.725708,649.622803 
	C806.556152,672.055359 806.046143,694.487549 806.119751,716.918396 
	C806.144897,724.578918 807.323914,725.087708 814.907166,725.046204 
	C817.236755,725.033447 819.588684,724.820374 821.890869,725.067688 
	C825.783386,725.485901 827.121399,724.112793 827.090637,720.066711 
	C826.920898,697.752686 827.015320,675.436646 827.018311,653.121338 
	C827.019531,644.221619 827.018494,635.321838 827.018494,626.387451 
	C832.847412,625.960205 839.393250,625.297180 845.953796,625.079224 
	C849.102722,624.974670 850.012085,623.367676 849.907104,620.818359 
	C849.751953,617.052429 849.592896,613.241882 848.850830,609.568359 
	C848.578857,608.222046 846.673523,606.247559 845.456848,606.205872 
	C837.648193,605.938232 829.823975,606.128052 821.117859,606.020874 
M313.138763,657.027893 
	C312.098999,656.354553 310.167419,655.698975 310.153656,655.005249 
	C309.957062,645.091248 310.019470,635.172058 310.019470,625.003784 
	C312.510284,625.003784 314.363342,624.766968 316.134888,625.046570 
	C322.328400,626.024353 329.882202,625.657288 331.227539,633.904358 
	C332.195465,639.837952 335.343262,640.439880 340.056122,640.041931 
	C342.534607,639.832642 345.118011,640.353821 347.511993,639.858704 
	C348.825165,639.587036 350.659851,637.999146 350.821045,636.809814 
	C351.138214,634.469910 350.882660,631.846191 350.111633,629.597961 
	C344.595001,613.512451 333.550446,606.706177 317.691650,606.075500 
	C307.557404,605.672424 297.393890,605.986389 287.243622,606.013306 
	C282.238220,606.026550 281.297119,607.490723 282.016846,612.392883 
	C282.475128,615.514160 282.187195,618.762085 282.065369,621.946716 
	C281.937134,625.300964 282.451019,627.657593 286.716949,626.212891 
	C287.581757,625.919983 288.630615,626.170471 289.514160,626.170471 
	C289.514160,636.122498 289.514160,645.885681 289.514160,655.632080 
	C282.000031,656.453735 281.999939,656.453735 282.000763,664.130066 
	C282.001038,666.792480 281.519165,669.579224 282.162811,672.075867 
	C282.633759,673.902649 284.480438,676.604858 285.895203,676.721680 
	C289.734009,677.038757 290.177673,678.973877 290.015564,681.998962 
	C289.617767,689.421875 289.305511,696.849304 288.983246,703.752380 
	C286.894714,704.289368 283.738861,704.502808 283.614471,705.232788 
	C282.956299,709.095215 283.060699,713.087585 282.984039,717.929016 
	C282.984039,720.181641 282.984039,722.434265 282.984039,724.942383 
	C296.147583,724.942383 308.658112,725.626465 321.047699,724.697388 
	C329.056763,724.096741 336.795227,720.934937 342.716644,714.788452 
	C349.226410,708.031128 352.335052,699.870239 352.760559,689.192993 
	C346.367523,689.192993 340.003448,689.121643 333.647430,689.314575 
	C333.074188,689.331970 332.228333,690.999451 332.056610,691.995117 
	C329.965332,704.120361 321.679321,705.834351 312.818176,704.864990 
	C311.798676,704.753540 310.166290,703.110840 310.142670,702.145752 
	C309.932404,693.552063 310.020294,684.951111 310.020294,676.127808 
	C320.252319,675.587585 329.910126,675.077637 339.999756,674.544922 
	C339.999756,669.822693 339.824524,665.352539 340.054749,660.903381 
	C340.241669,657.291565 339.092285,655.668640 335.265656,655.957153 
	C328.187561,656.490784 321.090851,656.777222 313.138763,657.027893 
M902.080322,658.017517 
	C898.249634,658.010559 894.408936,657.829773 890.591125,658.047913 
	C887.138916,658.245239 885.826050,657.035278 885.937866,653.487610 
	C886.153015,646.665649 885.871887,639.829163 886.024048,633.003723 
	C886.365234,617.694214 872.818359,602.979126 856.230286,606.408020 
	C856.230286,613.118530 856.230286,619.877380 856.230286,627.043823 
	C860.462402,626.503601 864.500244,627.635620 864.812927,632.159729 
	C865.380310,640.370667 864.973816,648.648804 864.973816,657.180603 
	C861.634277,657.180603 859.023071,657.180603 856.003662,657.180603 
	C856.003662,661.932251 856.004089,666.392334 856.003540,670.852478 
	C856.002686,678.710693 856.002686,678.706055 863.940186,679.109131 
	C864.207397,679.122742 864.459595,679.430603 864.995850,679.783813 
	C864.995850,693.248108 865.084717,706.883850 864.931335,720.516907 
	C864.894409,723.801636 866.295105,724.960510 869.239136,724.976379 
	C873.403320,724.998901 877.567749,725.020691 881.731812,725.000916 
	C884.648621,724.987122 886.160522,723.869385 886.072449,720.553467 
	C885.869080,712.897217 886.005981,705.231934 886.005432,697.570312 
	C886.005005,691.126770 886.005371,684.683167 886.005371,677.833679 
	C889.053955,677.833679 891.529236,677.833679 894.839905,677.973206 
	C902.453613,677.973206 910.067261,677.973206 918.001160,677.973206 
	C918.001160,680.065125 918.001404,681.712036 918.001099,683.358948 
	C917.998535,695.676636 917.911072,707.995667 918.098694,720.310486 
	C918.122498,721.877319 919.518555,724.723389 920.389648,724.767090 
	C926.187012,725.057983 932.014648,724.747253 937.718323,724.634399 
	C937.718323,684.271606 937.718323,645.212402 937.718323,605.992065 
	C932.770203,605.992065 928.100342,606.212219 923.461548,605.926880 
	C919.270752,605.669067 919.034058,607.956299 918.983154,611.184570 
	C918.748108,626.095520 918.341553,641.003784 917.976990,655.912598 
	C917.961853,656.528625 917.751770,657.140015 917.552185,658.166504 
	C912.601685,658.166504 907.803040,658.166504 902.080322,658.017517 
M773.992310,621.261963 
	C769.502136,614.300476 763.293701,608.372559 755.342163,607.490601 
	C740.466125,605.840515 725.383301,606.053589 710.008423,605.477356 
	C710.008423,611.054688 710.288147,615.543030 709.934326,619.980896 
	C709.533325,625.010437 710.588806,628.206482 717.088135,626.915161 
	C717.088135,636.858704 717.088135,646.366272 717.088135,655.819519 
	C714.266663,655.974915 712.324341,656.081848 710.299072,656.193359 
	C710.299072,663.587524 710.299072,670.651062 710.299072,677.768372 
	C712.655212,677.964539 714.721497,678.136536 717.239380,678.346191 
	C717.239380,693.988953 717.239380,709.286987 717.239380,724.729065 
	C724.200500,724.729065 730.921509,724.729065 738.110779,724.729065 
	C738.110779,708.717590 738.110779,692.982910 738.110779,677.170227 
	C740.717468,677.042908 742.860596,676.938232 745.807434,676.971069 
	C756.005188,678.458130 759.334351,681.058777 759.919495,693.079041 
	C760.331665,701.545898 759.837219,710.054443 760.119995,718.531921 
	C760.184326,720.461487 761.410706,723.629761 762.745239,724.018127 
	C768.482239,725.687622 774.416931,726.034058 779.693909,723.595215 
	C779.693909,718.435425 779.719360,714.080322 779.688538,709.725647 
	C779.627747,701.132812 780.594238,692.351624 779.107727,684.009705 
	C778.003479,677.812866 773.700684,672.185913 770.596436,665.843018 
	C781.470581,656.752991 779.215698,643.432373 778.651184,630.755920 
	C778.517883,627.762390 775.698730,624.888489 773.992310,621.261963 
M580.816895,470.381653 
	C581.924561,467.500885 583.429260,464.702911 584.051270,461.720856 
	C585.108521,456.652466 582.337708,452.551575 580.017639,448.290802 
	C575.723083,440.404114 563.207336,436.841400 555.255432,440.863281 
	C550.509460,443.263733 548.720703,447.740143 545.776672,451.409027 
	C540.935547,457.442078 543.200317,464.121338 546.229004,469.482758 
	C549.369263,475.041779 554.993774,478.246277 561.905701,479.707336 
	C570.833679,481.594452 575.665222,476.919952 580.816895,470.381653 
M487.615692,503.450165 
	C488.826660,504.206970 489.956848,505.248199 491.276337,505.622772 
	C492.188812,505.881775 494.168274,505.425323 494.292358,504.937714 
	C495.299377,500.980621 495.980591,496.940613 496.860229,492.415955 
	C492.427704,494.781616 488.972382,494.094421 486.256134,489.915863 
	C485.886658,489.347534 483.611969,490.017670 482.827972,490.072113 
	C483.236420,493.156921 483.969360,495.184082 483.618530,497.002014 
	C483.246948,498.927155 481.844635,500.653351 480.494385,503.224457 
	C482.936523,503.224457 484.974548,503.224457 487.615692,503.450165 
M602.361328,347.462952 
	C606.235962,347.723938 610.110596,347.984924 613.593689,348.219543 
	C614.394592,344.733459 615.169067,341.362213 616.129883,337.179657 
	C611.151978,340.478271 608.634766,337.178741 605.834595,333.069946 
	C605.207153,335.510834 604.004883,337.527405 604.574097,338.444122 
	C606.783386,342.002563 604.951050,343.329620 602.090515,344.673401 
	C601.685181,344.863831 601.866821,346.303680 602.361328,347.462952 
M717.466309,468.182709 
	C711.906067,467.057220 714.607300,472.304657 711.521912,474.563354 
	C715.387939,475.422821 718.048340,476.014252 720.705688,476.605011 
	C720.935547,473.619019 721.094727,471.551331 721.270386,469.269775 
	C720.260742,468.972992 719.161072,468.649719 717.466309,468.182709 
z"/>
<path fill="#21BD5A" opacity="1.000000" stroke="none" 
	d="
M516.614929,606.009155 
	C509.980408,601.941589 507.887268,595.619446 508.118652,588.320740 
	C508.222534,585.044678 508.520721,581.682129 509.393250,578.542969 
	C511.063812,572.532715 507.028931,570.382446 502.915680,568.509277 
	C493.723541,564.323547 488.614136,557.304077 487.839050,547.325745 
	C487.119934,538.068176 488.901062,529.089905 491.768677,520.314941 
	C491.812408,520.181152 492.388062,520.221191 493.559875,520.074280 
	C492.950836,535.693909 489.794922,552.590393 509.922607,560.590271 
	C510.403687,556.346680 511.059235,552.307373 511.283356,548.244324 
	C511.843628,538.086548 512.133118,527.914062 512.667236,517.754639 
	C513.654846,498.969727 514.806396,480.193329 515.762756,461.406952 
	C516.517883,446.573975 517.078125,431.731110 517.754578,416.893982 
	C517.775757,416.429016 518.126099,415.979034 518.882080,415.185669 
	C520.472229,414.225220 521.503296,413.601166 522.534363,412.977142 
	C522.330261,418.955994 522.096985,424.934021 521.928345,430.913879 
	C521.610596,442.175415 521.514282,453.447113 520.959534,464.696472 
	C520.665100,470.667358 519.315918,476.582397 518.941772,482.553925 
	C517.942993,498.495605 517.039917,514.447632 516.443665,530.408508 
	C516.086975,539.957703 516.378235,549.531006 516.378235,560.227051 
	C522.181030,559.117554 527.523621,558.817200 532.305359,557.022522 
	C540.695496,553.873718 548.995789,550.270386 556.836914,545.954773 
	C561.513855,543.380737 565.225952,539.065002 569.405518,535.572571 
	C573.173401,532.424072 577.034607,529.386108 580.768494,526.198425 
	C585.350952,522.286255 590.210754,518.611145 594.297852,514.225220 
	C602.397217,505.533722 610.492981,496.767181 617.733459,487.371399 
	C622.787231,480.813263 626.391479,473.142273 630.692871,465.998230 
	C632.592529,462.843140 634.330383,459.525177 636.665588,456.716797 
	C638.837830,454.104340 638.098572,451.910309 636.937988,449.424011 
	C633.655762,442.392426 629.988586,441.036407 623.065491,443.949677 
	C621.954468,444.417206 620.304443,443.603851 618.349548,443.295105 
	C619.230713,442.201447 619.445312,441.709320 619.817566,441.506500 
	C626.324158,437.961548 627.535645,434.057068 624.266663,427.594727 
	C623.832214,426.735901 624.103210,425.520203 623.988098,423.349518 
	C628.804749,428.578918 631.444214,435.452454 639.168091,430.246124 
	C639.552917,429.986725 640.972351,431.262329 641.930237,431.835266 
	C634.842529,441.259521 634.822449,441.588501 641.385803,448.526276 
	C644.058167,442.072510 646.685120,435.944153 649.131470,429.744507 
	C650.755249,425.629578 652.451660,421.496674 653.535095,417.224609 
	C656.059387,407.270630 657.547241,396.991150 654.532288,387.069000 
	C652.756775,381.226074 649.745728,375.236053 643.023438,371.865662 
	C641.797302,371.019806 640.860535,370.749603 639.923828,370.479401 
	C639.465088,370.385620 639.006409,370.291870 638.093384,369.965240 
	C637.144897,369.683258 636.650818,369.634125 636.156677,369.585022 
	C633.921936,369.526672 631.687256,369.468353 628.991699,369.568665 
	C628.530823,369.727295 628.565674,369.674286 628.565674,369.674286 
	C628.234985,369.652405 627.904297,369.630493 627.016846,369.722168 
	C626.460083,369.835724 626.312317,369.985138 626.312317,369.985138 
	C626.045593,369.866425 625.778931,369.747742 624.841919,369.395630 
	C622.865967,369.388824 621.560547,369.615509 620.255066,369.842194 
	C620.016296,369.870880 619.777466,369.899567 619.020935,370.048920 
	C618.503296,370.169556 618.124329,370.222137 618.124329,370.222137 
	C617.916626,370.143738 617.708984,370.065308 616.993896,369.837341 
	C616.661987,368.545349 616.837524,367.402893 617.013000,366.260437 
	C617.178162,366.171783 617.343262,366.083160 617.976624,365.802063 
	C618.914185,365.468323 619.383484,365.327087 619.852722,365.185883 
	C629.260437,362.330353 638.742554,362.873688 648.459412,363.447815 
	C659.253418,364.085571 667.261902,369.264618 674.981750,375.711823 
	C680.982666,380.723450 683.342590,387.612244 685.459229,394.929993 
	C688.567078,405.674286 687.466614,416.336670 686.742676,427.122711 
	C686.652100,428.471832 688.017334,430.611786 689.280945,431.248810 
	C699.249390,436.274231 709.356995,441.023407 719.799133,445.923950 
	C720.176453,445.990295 720.228943,445.962555 720.228943,445.962555 
	C726.123108,449.224670 731.814575,452.948425 737.956787,455.645630 
	C748.351135,460.209961 751.719543,468.625397 746.494385,478.799988 
	C746.069336,479.627502 745.536560,480.557617 744.793945,481.039764 
	C737.150818,486.002258 729.551697,491.046204 721.723938,495.703918 
	C718.616882,497.552704 714.969604,498.493652 711.022217,499.768585 
	C710.250793,498.820557 710.025513,497.951843 709.800171,497.083191 
	C718.275574,492.365906 726.763611,487.671082 735.221436,482.922607 
	C740.115784,480.174805 743.003540,475.910431 743.764038,470.410400 
	C744.494873,465.124512 740.588501,462.781372 736.765503,460.685303 
	C728.284241,456.035187 719.727661,451.522400 711.202515,446.952362 
	C703.067017,442.591248 694.932312,438.228546 686.159180,433.524445 
	C684.191650,438.032990 682.297729,442.428436 680.358765,446.803864 
	C676.738037,454.973846 673.456665,463.321930 669.346985,471.239258 
	C665.615845,478.427582 661.583923,485.625732 656.585815,491.951416 
	C649.112183,501.410034 640.624695,510.063202 632.663696,519.142517 
	C625.736511,527.042847 617.865479,533.801819 608.990723,539.411133 
	C598.171021,546.249756 587.611023,553.552551 576.448181,559.774414 
	C570.087219,563.319885 562.883728,565.598267 555.813965,567.562683 
	C547.853027,569.774841 539.657898,571.261414 531.482971,572.542664 
	C526.480835,573.326599 521.325195,573.131104 515.124939,573.428955 
	C514.641052,579.665039 513.679993,585.857727 513.799927,592.029419 
	C513.959656,600.250000 522.791870,604.107300 530.163879,599.865417 
	C543.640015,592.111206 557.266296,584.618103 570.831177,577.018433 
	C573.546082,575.497437 576.217285,573.888550 578.993958,572.489441 
	C587.303101,568.302612 595.627197,564.142395 604.025940,560.140747 
	C605.007507,559.673035 606.492126,560.261108 607.813171,561.077942 
	C587.371826,569.775085 569.662170,582.548523 550.866577,594.639221 
	C549.602966,595.413940 548.798767,595.796204 547.994629,596.178528 
	C543.593994,598.098450 539.134399,599.897644 534.824951,602.004089 
	C533.330811,602.734497 532.209106,604.226990 530.747314,605.696655 
	C525.923218,606.017700 521.269043,606.013428 516.614929,606.009155 
z"/>
<path fill="#689BCF" opacity="1.000000" stroke="none" 
	d="
M745.003723,676.833557 
	C742.860596,676.938232 740.717468,677.042908 738.110779,677.170227 
	C738.110779,692.982910 738.110779,708.717590 738.110779,724.729065 
	C730.921509,724.729065 724.200500,724.729065 717.239380,724.729065 
	C717.239380,709.286987 717.239380,693.988953 717.239380,678.346191 
	C714.721497,678.136536 712.655212,677.964539 710.299072,677.768372 
	C710.299072,670.651062 710.299072,663.587524 710.299072,656.193359 
	C712.324341,656.081848 714.266663,655.974915 717.088135,655.819519 
	C717.088135,646.366272 717.088135,636.858704 717.088135,626.915161 
	C710.588806,628.206482 709.533325,625.010437 709.934326,619.980896 
	C710.288147,615.543030 710.008423,611.054688 710.008423,605.477356 
	C725.383301,606.053589 740.466125,605.840515 755.342163,607.490601 
	C763.293701,608.372559 769.502136,614.300476 773.692261,621.648315 
	C770.351685,626.594482 767.383789,631.205444 764.231750,635.686890 
	C763.106445,637.286926 761.535156,638.573303 759.995850,639.661499 
	C756.555481,628.856995 747.894775,624.056213 737.803345,626.571777 
	C737.803345,636.428650 737.803345,646.108154 737.803345,657.314209 
	C744.245300,656.025513 749.602966,654.953674 754.896729,654.233948 
	C751.556396,662.001831 748.280090,669.417725 745.003723,676.833557 
z"/>
<path fill="#56A6B3" opacity="1.000000" stroke="none" 
	d="
M548.000488,596.631958 
	C548.798767,595.796204 549.602966,595.413940 550.733276,594.953003 
	C562.140564,595.249878 573.253540,596.311462 584.293701,595.800903 
	C594.552185,595.326416 603.684753,597.275635 611.209595,604.129761 
	C618.116455,610.421082 622.997498,618.057007 623.053467,627.980408 
	C623.070557,631.019470 621.918762,632.249939 618.923523,632.032104 
	C617.103210,631.899719 615.264771,632.036255 613.435486,632.001587 
	C610.450317,631.944946 606.920898,632.785400 604.654175,631.468811 
	C602.852417,630.422241 602.669495,626.686096 601.637451,624.198120 
	C598.836487,617.445557 592.653992,616.732971 586.585144,616.054871 
	C583.975647,615.763306 581.306458,616.005981 577.974304,616.005981 
	C577.974304,627.508179 577.974304,638.750977 577.928955,650.823730 
	C571.714294,664.246460 565.581421,676.857239 559.324341,689.406128 
	C558.636169,690.786316 557.235962,691.811462 556.165955,693.001282 
	C556.165955,686.176941 556.165955,679.352539 556.165955,672.625916 
	C547.994934,671.268066 547.994995,671.268066 547.999695,663.143066 
	C548.000854,661.143127 548.001709,659.143127 548.001953,657.143188 
	C548.002930,649.427551 548.002808,649.427551 555.726196,648.641174 
	C555.726196,638.262634 555.726196,627.854309 555.726196,616.991638 
	C554.253906,616.991638 552.963989,616.925964 551.683044,617.005127 
	C548.838135,617.180847 547.898926,615.816101 547.966736,613.083252 
	C548.099121,607.753601 548.006042,602.418335 548.000488,596.631958 
z"/>
<path fill="#7792E8" opacity="1.000000" stroke="none" 
	d="
M894.004395,677.833679 
	C891.529236,677.833679 889.053955,677.833679 886.005371,677.833679 
	C886.005371,684.683167 886.005005,691.126770 886.005432,697.570312 
	C886.005981,705.231934 885.869080,712.897217 886.072449,720.553467 
	C886.160522,723.869385 884.648621,724.987122 881.731812,725.000916 
	C877.567749,725.020691 873.403320,724.998901 869.239136,724.976379 
	C866.295105,724.960510 864.894409,723.801636 864.931335,720.516907 
	C865.084717,706.883850 864.995850,693.248108 864.995850,679.783813 
	C864.459595,679.430603 864.207397,679.122742 863.940186,679.109131 
	C856.002686,678.706055 856.002686,678.710693 856.003540,670.852478 
	C856.004089,666.392334 856.003662,661.932251 856.003662,657.180603 
	C859.023071,657.180603 861.634277,657.180603 864.973816,657.180603 
	C864.973816,648.648804 865.380310,640.370667 864.812927,632.159729 
	C864.500244,627.635620 860.462402,626.503601 856.230286,627.043823 
	C856.230286,619.877380 856.230286,613.118530 856.230286,606.408020 
	C872.818359,602.979126 886.365234,617.694214 886.024048,633.003723 
	C885.871887,639.829163 886.153015,646.665649 885.937866,653.487610 
	C885.826050,657.035278 887.138916,658.245239 890.591125,658.047913 
	C894.408936,657.829773 898.249634,658.010559 902.513184,658.450195 
	C899.965454,665.199768 896.984924,671.516724 894.004395,677.833679 
z"/>
<path fill="#3BB687" opacity="1.000000" stroke="none" 
	d="
M282.900757,717.034912 
	C283.060699,713.087585 282.956299,709.095215 283.614471,705.232788 
	C283.738861,704.502808 286.894714,704.289368 288.983246,703.752380 
	C289.305511,696.849304 289.617767,689.421875 290.015564,681.998962 
	C290.177673,678.973877 289.734009,677.038757 285.895203,676.721680 
	C284.480438,676.604858 282.633759,673.902649 282.162811,672.075867 
	C281.519165,669.579224 282.001038,666.792480 282.000763,664.130066 
	C281.999939,656.453735 282.000031,656.453735 289.514160,655.632080 
	C289.514160,645.885681 289.514160,636.122498 289.514160,626.170471 
	C288.630615,626.170471 287.581757,625.919983 286.716949,626.212891 
	C282.451019,627.657593 281.937134,625.300964 282.065369,621.946716 
	C282.187195,618.762085 282.475128,615.514160 282.016846,612.392883 
	C281.297119,607.490723 282.238220,606.026550 287.243622,606.013306 
	C297.393890,605.986389 307.557404,605.672424 317.691650,606.075500 
	C333.550446,606.706177 344.595001,613.512451 350.111633,629.597961 
	C350.882660,631.846191 351.138214,634.469910 350.821045,636.809814 
	C350.659851,637.999146 348.825165,639.587036 347.511993,639.858704 
	C345.118011,640.353821 342.534607,639.832642 340.056122,640.041931 
	C335.343262,640.439880 332.195465,639.837952 331.227539,633.904358 
	C329.882202,625.657288 322.328400,626.024353 316.134888,625.046570 
	C314.363342,624.766968 312.510284,625.003784 310.019470,625.003784 
	C310.019470,635.172058 309.957062,645.091248 310.153656,655.005249 
	C310.167419,655.698975 312.098999,656.354553 313.562714,657.474426 
	C313.681274,659.196411 313.610535,660.590332 313.035339,661.729553 
	C304.382172,678.866089 295.705475,695.991211 286.888184,713.043457 
	C286.064941,714.635559 284.253448,715.716614 282.900757,717.034912 
z"/>
<path fill="#7C8FF0" opacity="1.000000" stroke="none" 
	d="
M894.422119,677.903442 
	C896.984924,671.516724 899.965454,665.199768 902.975220,658.524658 
	C907.803040,658.166504 912.601685,658.166504 917.552185,658.166504 
	C917.751770,657.140015 917.961853,656.528625 917.976990,655.912598 
	C918.341553,641.003784 918.748108,626.095520 918.983154,611.184570 
	C919.034058,607.956299 919.270752,605.669067 923.461548,605.926880 
	C928.100342,606.212219 932.770203,605.992065 937.718323,605.992065 
	C937.718323,645.212402 937.718323,684.271606 937.718323,724.634399 
	C932.014648,724.747253 926.187012,725.057983 920.389648,724.767090 
	C919.518555,724.723389 918.122498,721.877319 918.098694,720.310486 
	C917.911072,707.995667 917.998535,695.676636 918.001099,683.358948 
	C918.001404,681.712036 918.001160,680.065125 918.001160,677.973206 
	C910.067261,677.973206 902.453613,677.973206 894.422119,677.903442 
z"/>
<path fill="#7196DE" opacity="1.000000" stroke="none" 
	d="
M822.004822,606.167542 
	C829.823975,606.128052 837.648193,605.938232 845.456848,606.205872 
	C846.673523,606.247559 848.578857,608.222046 848.850830,609.568359 
	C849.592896,613.241882 849.751953,617.052429 849.907104,620.818359 
	C850.012085,623.367676 849.102722,624.974670 845.953796,625.079224 
	C839.393250,625.297180 832.847412,625.960205 827.018494,626.387451 
	C827.018494,635.321838 827.019531,644.221619 827.018311,653.121338 
	C827.015320,675.436646 826.920898,697.752686 827.090637,720.066711 
	C827.121399,724.112793 825.783386,725.485901 821.890869,725.067688 
	C819.588684,724.820374 817.236755,725.033447 814.907166,725.046204 
	C807.323914,725.087708 806.144897,724.578918 806.119751,716.918396 
	C806.046143,694.487549 806.556152,672.055359 806.725708,649.622803 
	C806.757690,645.389282 806.274902,641.151978 806.445007,636.417542 
	C807.862183,634.714050 809.162476,633.652039 809.817444,632.281555 
	C813.959534,623.614929 817.958557,614.879944 822.004822,606.167542 
z"/>
<path fill="#4BADA0" opacity="1.000000" stroke="none" 
	d="
M449.794495,714.068970 
	C446.765320,709.146179 442.820709,704.551331 440.913513,699.226685 
	C437.757843,690.416382 437.253235,681.141968 438.766052,671.678650 
	C439.570984,666.643311 438.665283,661.334045 438.527222,656.148560 
	C438.355377,649.694519 438.168579,643.240906 438.007141,636.786621 
	C437.816711,629.174683 439.417023,629.315002 430.326721,628.714539 
	C430.326721,621.345337 430.326721,613.949036 430.326721,606.483521 
	C440.689362,606.483521 450.959015,606.483521 461.644867,606.483521 
	C461.741882,607.442932 462.008728,608.704163 461.974213,609.957153 
	C461.681641,620.576660 461.206238,631.192871 461.047363,641.813904 
	C460.938965,649.063782 461.347382,656.319946 461.345764,663.573303 
	C461.344086,671.118286 460.929840,678.667847 461.102051,686.206116 
	C461.170563,689.206543 462.328705,692.182068 462.754486,695.752686 
	C460.261810,700.389893 458.241943,704.602722 455.657959,708.435181 
	C454.176697,710.632202 451.779388,712.211548 449.794495,714.068970 
z"/>
<path fill="#42B292" opacity="1.000000" stroke="none" 
	d="
M369.898071,709.047058 
	C364.647034,703.899536 361.886108,697.726074 361.980499,690.295776 
	C362.059174,684.100769 361.991333,677.903992 361.990936,671.708008 
	C361.990021,657.635437 361.990631,643.562866 361.990631,629.250366 
	C358.271912,629.073120 355.994659,628.964539 353.353668,628.838684 
	C353.353668,621.428101 353.353668,614.047424 353.353668,606.035706 
	C363.359070,606.035706 373.304565,605.940491 383.241425,606.190369 
	C384.182129,606.214050 385.574554,608.291870 385.863312,609.611572 
	C386.315399,611.677979 386.739746,614.275452 385.882294,616.007568 
	C383.017273,621.795410 385.593964,627.639465 385.163574,633.427917 
	C384.540039,641.814453 385.136017,650.284485 384.966675,658.713928 
	C384.782257,667.894836 384.317719,677.070190 383.578705,686.718506 
	C381.387299,689.834778 379.464935,692.404114 377.826416,695.143188 
	C375.088135,699.720703 372.531281,704.406738 369.898071,709.047058 
z"/>
<path fill="#3FB48D" opacity="1.000000" stroke="none" 
	d="
M282.942413,717.481934 
	C284.253448,715.716614 286.064941,714.635559 286.888184,713.043457 
	C295.705475,695.991211 304.382172,678.866089 313.035339,661.729553 
	C313.610535,660.590332 313.681274,659.196411 313.994263,657.543823 
	C321.090851,656.777222 328.187561,656.490784 335.265656,655.957153 
	C339.092285,655.668640 340.241669,657.291565 340.054749,660.903381 
	C339.824524,665.352539 339.999756,669.822693 339.999756,674.544922 
	C329.910126,675.077637 320.252319,675.587585 310.020294,676.127808 
	C310.020294,684.951111 309.932404,693.552063 310.142670,702.145752 
	C310.166290,703.110840 311.798676,704.753540 312.818176,704.864990 
	C321.679321,705.834351 329.965332,704.120361 332.056610,691.995117 
	C332.228333,690.999451 333.074188,689.331970 333.647430,689.314575 
	C340.003448,689.121643 346.367523,689.192993 352.760559,689.192993 
	C352.335052,699.870239 349.226410,708.031128 342.716644,714.788452 
	C336.795227,720.934937 329.056763,724.096741 321.047699,724.697388 
	C308.658112,725.626465 296.147583,724.942383 282.984039,724.942383 
	C282.984039,722.434265 282.984039,720.181641 282.942413,717.481934 
z"/>
<path fill="#34BA7B" opacity="1.000000" stroke="none" 
	d="
M230.884308,683.041260 
	C230.884308,664.619202 230.884308,646.197144 230.884308,626.993835 
	C225.311951,626.993835 219.881470,626.972534 214.451248,626.999512 
	C208.409302,627.029541 207.107437,625.848572 207.034698,620.068420 
	C206.994431,616.868652 207.199875,613.654480 206.963348,610.471436 
	C206.670090,606.525024 207.791611,604.555054 212.210571,604.944275 
	C218.453613,605.494202 224.731873,605.804443 230.999298,605.883667 
	C243.345520,606.039856 255.695969,606.072693 268.041779,605.921692 
	C271.608185,605.878113 273.149139,606.793152 273.095154,610.649353 
	C273.031372,615.201599 273.666473,619.763672 274.031067,624.766541 
	C266.314484,625.329895 258.970306,625.866150 251.228455,626.431396 
	C251.228455,634.130676 251.238327,641.881165 251.218124,649.631592 
	C251.214981,650.831421 251.074020,652.030823 250.569122,653.653015 
	C248.876801,655.283691 247.207352,656.273315 246.416977,657.737427 
	C242.799866,664.438171 239.577988,671.354675 235.878754,678.007141 
	C234.772827,679.995972 232.579468,681.380066 230.884308,683.041260 
z"/>
<path fill="#2BC06D" opacity="1.000000" stroke="none" 
	d="
M185.883820,631.041016 
	C178.915085,623.797791 170.026184,626.480286 161.044907,625.983765 
	C161.044907,631.958130 161.044907,637.557739 160.926666,643.889526 
	C155.563843,654.697449 150.413147,664.824097 144.996109,674.806213 
	C143.903854,676.818909 141.801987,678.283691 140.165588,680.001099 
	C139.921951,675.379883 139.534561,670.760742 139.465988,666.136902 
	C139.341461,657.739197 139.403519,649.338745 139.393646,640.939392 
	C139.387558,635.770386 139.392517,630.601318 139.392517,625.293518 
	C139.237137,625.256042 138.746994,625.001160 138.287003,625.047241 
	C129.591858,625.918396 129.247162,625.615540 130.026764,617.183228 
	C130.211517,615.184998 130.809525,613.203064 130.801407,611.215271 
	C130.793671,609.324280 130.241943,607.435486 129.989532,605.909424 
	C142.524918,605.909424 154.757584,605.681763 166.975922,606.001343 
	C173.493973,606.171814 180.083588,606.828735 186.452240,608.165100 
	C189.764297,608.860168 192.666565,611.508057 195.743958,613.910828 
	C195.087036,616.064453 194.624496,617.696777 193.758469,619.075745 
	C191.219666,623.118225 188.520294,627.059875 185.883820,631.041016 
z"/>
<path fill="#32BC77" opacity="1.000000" stroke="none" 
	d="
M185.932770,631.468994 
	C188.520294,627.059875 191.219666,623.118225 193.758469,619.075745 
	C194.624496,617.696777 195.087036,616.064453 195.891541,614.221252 
	C203.884018,620.719238 208.097443,629.116211 208.042679,639.716125 
	C207.909393,665.509705 208.001862,691.304443 208.003387,717.098755 
	C208.003494,718.886658 208.003418,720.674561 208.003418,722.729858 
	C201.277222,722.729858 195.023331,722.729858 187.922714,722.729858 
	C187.922714,714.798523 188.029007,706.839722 187.882843,698.885559 
	C187.795197,694.116211 187.103470,689.356445 187.049683,684.588196 
	C186.916458,672.775208 187.098160,660.958313 186.941895,649.145874 
	C186.865799,643.393066 186.316696,637.646423 185.932770,631.468994 
z"/>
<path fill="#6C99D7" opacity="1.000000" stroke="none" 
	d="
M745.405579,676.902344 
	C748.280090,669.417725 751.556396,662.001831 755.043396,653.916199 
	C756.891846,648.831848 758.529663,644.417358 760.167419,640.002808 
	C761.535156,638.573303 763.106445,637.286926 764.231750,635.686890 
	C767.383789,631.205444 770.351685,626.594482 773.753662,621.997070 
	C775.698730,624.888489 778.517883,627.762390 778.651184,630.755920 
	C779.215698,643.432373 781.470581,656.752991 770.596436,665.843018 
	C773.700684,672.185913 778.003479,677.812866 779.107727,684.009705 
	C780.594238,692.351624 779.627747,701.132812 779.688538,709.725647 
	C779.719360,714.080322 779.693909,718.435425 779.693909,723.595215 
	C774.416931,726.034058 768.482239,725.687622 762.745239,724.018127 
	C761.410706,723.629761 760.184326,720.461487 760.119995,718.531921 
	C759.837219,710.054443 760.331665,701.545898 759.919495,693.079041 
	C759.334351,681.058777 756.005188,678.458130 745.405579,676.902344 
z"/>
<path fill="#61A0C4" opacity="1.000000" stroke="none" 
	d="
M674.959778,677.116943 
	C670.533569,677.116943 666.107361,677.116943 661.733398,677.116943 
	C661.733398,684.168213 661.697021,690.793945 661.743347,697.419128 
	C661.793274,704.557617 661.762207,711.702515 662.071472,718.831299 
	C662.267822,723.359314 660.429138,725.246155 655.975952,725.081848 
	C651.821777,724.928528 647.658386,724.969788 643.499817,725.011047 
	C640.260681,725.043152 639.719299,723.278564 639.721985,720.432251 
	C639.726685,715.498962 639.209900,710.567566 639.066711,705.630859 
	C638.982117,702.714417 639.209900,699.789673 639.271179,696.868103 
	C639.408447,690.320496 639.529480,683.772583 639.405151,676.681763 
	C645.573059,662.831482 651.969055,649.512512 658.485718,636.252808 
	C658.800049,635.613342 660.176880,635.496033 661.033691,635.524963 
	C661.008484,642.408203 661.008484,648.901978 661.008484,656.000610 
	C662.755676,656.000610 664.393433,655.797974 665.963928,656.037048 
	C671.667358,656.905151 677.348267,657.921082 683.007935,659.261902 
	C680.305420,665.467285 677.632568,671.292114 674.959778,677.116943 
z"/>
<path fill="#59A4B7" opacity="1.000000" stroke="none" 
	d="
M556.097900,693.452332 
	C557.235962,691.811462 558.636169,690.786316 559.324341,689.406128 
	C565.581421,676.857239 571.714294,664.246460 577.959351,651.286499 
	C587.285461,650.613525 596.545898,650.477417 605.781677,649.927246 
	C610.108215,649.669495 611.105286,651.329346 611.076782,655.375305 
	C610.973694,670.004944 611.104187,669.921143 596.361938,670.048828 
	C591.267517,670.092957 586.150818,670.474182 581.106262,671.158508 
	C579.941284,671.316528 578.173340,673.326477 578.139832,674.524902 
	C577.889038,683.502930 577.965393,692.491699 578.100891,701.474731 
	C578.108887,702.006653 579.513062,702.517456 580.714661,703.460693 
	C580.945068,706.246155 581.309814,708.868286 580.395020,710.919983 
	C578.259460,715.709900 575.509033,720.225708 573.007568,724.852478 
	C566.365234,724.898987 559.720215,724.847534 553.081665,725.030945 
	C549.437805,725.131653 547.959595,723.444824 547.988037,720.004150 
	C548.015503,716.680115 548.007751,713.355713 548.019104,710.031494 
	C548.045349,702.367737 548.046265,702.367737 556.029785,701.642883 
	C556.029785,699.107605 556.029785,696.505493 556.097900,693.452332 
z"/>
<path fill="#659DCA" opacity="1.000000" stroke="none" 
	d="
M675.133667,677.427124 
	C677.632568,671.292114 680.305420,665.467285 683.351624,659.306641 
	C684.109619,658.325439 684.494141,657.680115 685.138550,656.784790 
	C689.271484,648.679260 692.998596,640.745422 697.129517,633.027710 
	C698.060547,631.288391 700.399414,630.302551 702.090271,628.969849 
	C702.725708,631.920593 703.887512,634.867004 703.911682,637.822754 
	C704.076355,657.944458 703.923157,678.068542 704.046936,698.190796 
	C704.089539,705.115356 704.854675,712.037170 704.844055,718.959534 
	C704.839111,722.176514 704.279541,725.168823 699.306274,725.112183 
	C683.999207,724.937744 684.106750,725.161926 683.953186,710.079285 
	C683.872803,702.178711 683.792053,694.223389 682.793213,686.410217 
	C682.300720,682.557617 680.249451,678.504456 675.133667,677.427124 
z"/>
<path fill="#26C365" opacity="1.000000" stroke="none" 
	d="
M97.879150,683.055969 
	C97.585686,681.343567 97.042648,679.631897 97.037094,677.918579 
	C96.976715,659.307617 97.000618,640.696350 97.001526,622.085205 
	C97.001610,620.281250 97.001541,618.477295 97.001541,616.228943 
	C93.613716,616.077454 90.557098,615.940796 87.282639,615.794312 
	C87.282639,608.416992 87.282639,601.349609 87.282639,595.156555 
	C94.938347,594.769775 102.266457,594.352722 109.599434,594.056091 
	C111.946823,593.961121 114.455078,593.737000 116.600891,594.446045 
	C117.723434,594.817017 118.873367,597.073059 118.895645,598.495239 
	C119.078979,610.197876 119.002991,621.904602 118.999771,633.610046 
	C118.998528,638.130920 118.982155,642.651794 118.579681,647.676758 
	C115.201790,653.056946 112.120880,657.877441 109.255501,662.822693 
	C105.376793,669.516968 101.663429,676.307007 97.879150,683.055969 
z"/>
<path fill="#51A9AB" opacity="1.000000" stroke="none" 
	d="
M516.110779,605.981445 
	C521.269043,606.013428 525.923218,606.017700 530.942505,605.971558 
	C537.996948,606.113647 538.125122,606.116638 537.966736,612.845154 
	C537.773499,621.055054 537.238708,629.257141 537.064819,637.467102 
	C537.010620,640.026733 537.648621,642.600952 537.594727,645.722229 
	C532.139893,656.385681 527.160950,666.548523 521.887512,676.556213 
	C520.933960,678.365784 518.771667,679.538452 517.167419,681.005127 
	C517.167419,662.877014 517.167419,644.748901 517.167419,626.271973 
	C516.720520,626.140198 515.657837,625.579834 514.579773,625.548584 
	C507.006592,625.329529 506.927734,625.363342 507.038605,617.716797 
	C507.094208,613.879944 507.493073,610.048096 507.753296,605.953796 
	C510.993683,605.953796 513.300171,605.953796 516.110779,605.981445 
z"/>
<path fill="#5DA2BE" opacity="1.000000" stroke="none" 
	d="
M661.058899,635.135559 
	C660.176880,635.496033 658.800049,635.613342 658.485718,636.252808 
	C651.969055,649.512512 645.573059,662.831482 639.074890,676.489990 
	C634.550720,677.751526 632.554260,676.322388 632.910828,671.426270 
	C633.294250,666.161194 632.997437,660.846680 632.997437,655.182068 
	C635.422668,655.059875 637.508118,654.954834 639.483582,654.855347 
	C639.483582,645.506775 639.483582,636.354370 639.483582,626.930176 
	C633.552551,628.249695 632.567322,625.143494 632.931824,620.260498 
	C633.264709,615.800964 633.002380,611.296997 633.002380,607.023438 
	C645.477112,607.023438 657.776794,607.023438 670.537354,607.489014 
	C668.012817,614.341675 665.027466,620.728760 662.026611,627.541626 
	C661.693726,630.356812 661.376282,632.746216 661.058899,635.135559 
z"/>
<path fill="#2DBD71" opacity="1.000000" stroke="none" 
	d="
M139.991516,680.381714 
	C141.801987,678.283691 143.903854,676.818909 144.996109,674.806213 
	C150.413147,664.824097 155.563843,654.697449 160.915771,644.297241 
	C161.342499,644.856018 161.952591,645.744324 161.937286,646.621704 
	C161.737656,658.069763 161.394333,669.515442 161.201263,680.963562 
	C161.052017,689.812256 160.955383,698.664917 161.052032,707.513428 
	C161.095016,711.450134 161.699722,715.378906 161.997437,719.315186 
	C162.291199,723.199646 160.708969,725.223022 156.547211,725.047607 
	C152.393021,724.872681 148.219040,724.828186 144.067703,725.023193 
	C140.234863,725.203247 139.123459,722.916931 139.177673,719.867432 
	C139.294907,713.270508 139.876801,706.679810 139.920090,700.084351 
	C139.951782,695.256775 139.351685,690.428101 139.195145,685.594604 
	C139.143250,683.992249 139.595612,682.373596 139.991516,680.381714 
z"/>
<path fill="#2BC06D" opacity="1.000000" stroke="none" 
	d="
M97.902626,683.475708 
	C101.663429,676.307007 105.376793,669.516968 109.255501,662.822693 
	C112.120880,657.877441 115.201790,653.056946 118.509621,648.092651 
	C119.220802,672.300110 119.662003,696.595459 119.856354,720.892761 
	C119.867203,722.248230 117.917458,724.713623 116.745834,724.798157 
	C111.120949,725.203735 105.443520,725.100281 99.801094,724.832764 
	C98.834610,724.786987 97.154739,723.078247 97.143768,722.122375 
	C97.004410,709.979370 97.099197,697.833435 97.185936,685.688599 
	C97.190224,685.089172 97.668526,684.493103 97.902626,683.475708 
z"/>
<path fill="#7D88F1" opacity="1.000000" stroke="none" 
	d="
M580.615845,470.708557 
	C575.665222,476.919952 570.833679,481.594452 561.905701,479.707336 
	C554.993774,478.246277 549.369263,475.041779 546.229004,469.482758 
	C543.200317,464.121338 540.935547,457.442078 545.776672,451.409027 
	C548.720703,447.740143 550.509460,443.263733 555.255432,440.863281 
	C563.207336,436.841400 575.723083,440.404114 580.017639,448.290802 
	C582.337708,452.551575 585.108521,456.652466 584.051270,461.720856 
	C583.429260,464.702911 581.924561,467.500885 580.615845,470.708557 
z"/>
<path fill="#4BADA0" opacity="1.000000" stroke="none" 
	d="
M369.953125,709.393250 
	C372.531281,704.406738 375.088135,699.720703 377.826416,695.143188 
	C379.464935,692.404114 381.387299,689.834778 383.506073,687.101196 
	C384.666473,693.488586 387.151428,698.951477 393.520599,701.685181 
	C395.410309,702.496277 397.599457,702.944092 399.658661,702.969360 
	C409.968292,703.096191 420.280334,703.027405 430.992676,703.027405 
	C430.992676,709.527161 431.137268,715.655396 430.860596,721.764526 
	C430.810242,722.876892 428.995758,724.878235 428.069092,724.836487 
	C414.490875,724.225220 400.680481,726.749695 387.372284,722.611511 
	C380.230927,720.390808 374.187012,716.199951 369.953125,709.393250 
z"/>
<path fill="#56A6B3" opacity="1.000000" stroke="none" 
	d="
M517.101685,681.415588 
	C518.771667,679.538452 520.933960,678.365784 521.887512,676.556213 
	C527.160950,666.548523 532.139893,656.385681 537.525513,646.141235 
	C537.887512,670.930664 537.901550,695.854980 538.051392,720.778503 
	C538.070984,724.042969 536.927002,725.233643 533.702576,725.065735 
	C529.728088,724.858704 525.733826,725.066223 521.752991,724.939270 
	C518.343140,724.830505 515.752197,723.994934 517.656982,719.585510 
	C518.150391,718.443420 517.984253,716.982544 517.987183,715.667786 
	C518.008789,706.134338 518.043823,696.600403 517.951233,687.067871 
	C517.934265,685.317810 517.355408,683.573181 517.101685,681.415588 
z"/>
<path fill="#38B881" opacity="1.000000" stroke="none" 
	d="
M230.932129,683.505127 
	C232.579468,681.380066 234.772827,679.995972 235.878754,678.007141 
	C239.577988,671.354675 242.799866,664.438171 246.416977,657.737427 
	C247.207352,656.273315 248.876801,655.283691 250.487579,654.038635 
	C250.904434,664.181702 250.884430,674.363342 251.069458,684.541260 
	C251.286484,696.478027 251.577377,708.415833 252.069153,720.343567 
	C252.201492,723.553284 250.955353,724.932251 248.018860,724.974976 
	C242.461609,725.055908 236.902344,724.998413 230.979950,724.998413 
	C230.979950,710.522766 230.979950,697.245850 230.932129,683.505127 
z"/>
<path fill="#51A9AB" opacity="1.000000" stroke="none" 
	d="
M449.981079,714.364685 
	C451.779388,712.211548 454.176697,710.632202 455.657959,708.435181 
	C458.241943,704.602722 460.261810,700.389893 462.806976,696.144531 
	C468.090607,702.334595 474.806091,703.568298 482.493713,703.146606 
	C490.841156,702.688782 499.233124,703.042786 507.996277,703.042786 
	C507.996277,709.438049 508.133484,715.582031 507.873352,721.709106 
	C507.824890,722.849792 506.169739,724.889893 505.272736,724.880737 
	C493.193756,724.757568 481.103699,724.592468 469.046051,723.911926 
	C461.637329,723.493774 455.959259,718.783752 449.981079,714.364685 
z"/>
<path fill="#5DA2BE" opacity="1.000000" stroke="none" 
	d="
M573.471313,724.913574 
	C575.509033,720.225708 578.259460,715.709900 580.395020,710.919983 
	C581.309814,708.868286 580.945068,706.246155 581.082581,703.525391 
	C585.641052,702.335754 590.531982,702.158630 594.845642,700.489563 
	C599.228760,698.793640 602.505493,695.259460 601.994324,689.783936 
	C601.728149,686.933105 603.053650,685.923035 605.790771,685.975342 
	C610.951721,686.074036 616.116028,686.016418 621.278809,685.995117 
	C624.269714,685.982788 624.829163,686.796753 624.574951,690.211914 
	C623.935059,698.809143 620.398865,705.983215 615.106995,712.238220 
	C607.584412,721.129883 596.978943,723.871582 585.919128,724.964600 
	C581.962708,725.355713 577.931824,724.993225 573.471313,724.913574 
z"/>
<path fill="#6F7AD4" opacity="1.000000" stroke="none" 
	d="
M522.614990,412.591614 
	C521.503296,413.601166 520.472229,414.225220 519.157471,414.842224 
	C518.847778,407.669678 518.581665,400.494995 518.857422,393.341156 
	C519.190491,384.698608 519.261169,375.936859 520.862854,367.495636 
	C521.741760,362.863617 524.649963,357.581024 528.324463,354.872589 
	C530.850281,353.010803 536.617615,354.148621 540.313477,355.567505 
	C547.672729,358.392822 554.676208,362.195435 561.690674,365.854828 
	C569.245789,369.796295 576.573059,374.175293 584.137878,378.096863 
	C589.184509,380.713074 594.546936,382.714844 599.633301,385.260834 
	C605.567932,388.231323 611.382507,391.446442 617.199097,394.646393 
	C622.133484,397.360992 627.051453,400.115295 631.858276,403.046173 
	C633.305298,403.928497 634.355774,405.461029 635.587952,406.695679 
	C635.197266,407.129425 634.806641,407.563141 634.416016,407.996887 
	C622.464844,402.105927 610.486816,396.268829 598.569275,390.310638 
	C583.011169,382.532440 567.547791,374.563568 551.945435,366.876007 
	C546.361145,364.124542 540.599915,361.636353 534.717896,359.614502 
	C529.787903,357.919922 525.709045,361.408722 525.509827,366.688141 
	C525.059753,378.613403 524.620728,390.539886 524.023682,402.458221 
	C523.860229,405.721497 523.153137,408.957550 522.614990,412.591614 
z"/>
<path fill="#61A0C4" opacity="1.000000" stroke="none" 
	d="
M662.042053,627.115845 
	C665.027466,620.728760 668.012817,614.341675 671.000610,607.560791 
	C683.378540,607.340515 692.388977,613.348816 699.061157,623.381348 
	C700.113098,624.963013 701.061768,626.613342 702.074219,628.600891 
	C700.399414,630.302551 698.060547,631.288391 697.129517,633.027710 
	C692.998596,640.745422 689.271484,648.679260 684.784180,656.537537 
	C684.112671,651.593079 684.033264,646.646057 684.003113,641.698730 
	C683.960999,634.804321 680.708740,629.773315 674.138306,628.089844 
	C670.276550,627.100342 666.085144,627.397400 662.042053,627.115845 
z"/>
<path fill="#6C99D7" opacity="1.000000" stroke="none" 
	d="
M821.561340,606.094238 
	C817.958557,614.879944 813.959534,623.614929 809.817444,632.281555 
	C809.162476,633.652039 807.862183,634.714050 806.515076,635.961792 
	C806.169861,633.205933 806.169861,630.406982 806.169861,626.995056 
	C800.452576,626.995056 795.152283,626.586914 789.945312,627.109131 
	C784.674744,627.637695 783.218079,624.850037 783.052063,620.629272 
	C782.856262,615.651062 783.006165,610.659241 783.006165,606.020874 
	C795.821167,606.020874 808.469482,606.020874 821.561340,606.094238 
z"/>
<path fill="#325B1D" opacity="1.000000" stroke="none" 
	d="
M487.314148,503.337311 
	C484.974548,503.224457 482.936523,503.224457 480.494385,503.224457 
	C481.844635,500.653351 483.246948,498.927155 483.618530,497.002014 
	C483.969360,495.184082 483.236420,493.156921 482.827972,490.072113 
	C483.611969,490.017670 485.886658,489.347534 486.256134,489.915863 
	C488.972382,494.094421 492.427704,494.781616 496.860229,492.415955 
	C495.980591,496.940613 495.299377,500.980621 494.292358,504.937714 
	C494.168274,505.425323 492.188812,505.881775 491.276337,505.622772 
	C489.956848,505.248199 488.826660,504.206970 487.314148,503.337311 
z"/>
<path fill="#6F7AD4" opacity="1.000000" stroke="none" 
	d="
M602.069092,347.314087 
	C601.866821,346.303680 601.685181,344.863831 602.090515,344.673401 
	C604.951050,343.329620 606.783386,342.002563 604.574097,338.444122 
	C604.004883,337.527405 605.207153,335.510834 605.834595,333.069946 
	C608.634766,337.178741 611.151978,340.478271 616.129883,337.179657 
	C615.169067,341.362213 614.394592,344.733459 613.593689,348.219543 
	C610.110596,347.984924 606.235962,347.723938 602.069092,347.314087 
z"/>
<path fill="#325B1D" opacity="1.000000" stroke="none" 
	d="
M709.522949,497.249054 
	C710.025513,497.951843 710.250793,498.820557 710.693604,499.952942 
	C702.470337,505.386261 694.029663,510.555847 685.588928,515.725403 
	C685.203247,515.055603 684.817505,514.385742 684.431824,513.715881 
	C691.269409,509.557648 698.141052,505.453766 704.919373,501.201233 
	C706.522400,500.195557 707.812012,498.690338 709.522949,497.249054 
z"/>
<path fill="#21BD5A" opacity="1.000000" stroke="none" 
	d="
M717.763855,468.254578 
	C719.161072,468.649719 720.260742,468.972992 721.270386,469.269775 
	C721.094727,471.551331 720.935547,473.619019 720.705688,476.605011 
	C718.048340,476.014252 715.387939,475.422821 711.521912,474.563354 
	C714.607300,472.304657 711.906067,467.057220 717.763855,468.254578 
z"/>
<path fill="#325B1D" opacity="1.000000" stroke="none" 
	d="
M616.702576,366.188049 
	C616.837524,367.402893 616.661987,368.545349 616.665771,369.893616 
	C614.186096,370.633820 611.538269,371.460938 608.863037,371.561676 
	C607.758728,371.603302 606.595642,370.085815 604.713928,368.747162 
	C609.601379,367.645874 612.996765,366.880768 616.702576,366.188049 
z"/>
<path fill="#325B1D" opacity="1.000000" stroke="none" 
	d="
M620.484741,370.085449 
	C621.560547,369.615509 622.865967,369.388824 624.440063,369.221802 
	C623.377319,369.630554 622.045898,369.979614 620.484741,370.085449 
z"/>
<path fill="#325B1D" opacity="1.000000" stroke="none" 
	d="
M640.067505,370.723328 
	C640.860535,370.749603 641.797302,371.019806 642.814697,371.584412 
	C642.000671,371.574951 641.105896,371.271118 640.067505,370.723328 
z"/>
<path fill="#325B1D" opacity="1.000000" stroke="none" 
	d="
M636.251343,369.777893 
	C636.650818,369.634125 637.144897,369.683258 637.746948,369.907196 
	C637.351868,370.044922 636.848938,370.007843 636.251343,369.777893 
z"/>
<path fill="#325B1D" opacity="1.000000" stroke="none" 
	d="
M619.731201,365.006287 
	C619.383484,365.327087 618.914185,365.468323 618.198242,365.629181 
	C618.504211,365.374786 619.056885,365.100739 619.731201,365.006287 
z"/>
<path fill="#325B1D" opacity="1.000000" stroke="none" 
	d="
M618.174377,370.371613 
	C618.124329,370.222137 618.503296,370.169556 618.691162,370.195312 
	C618.878967,370.221069 618.639709,370.596191 618.639709,370.596191 
	C618.639709,370.596191 618.224426,370.521088 618.174377,370.371613 
z"/>
<path fill="#325B1D" opacity="1.000000" stroke="none" 
	d="
M626.303345,370.122620 
	C626.312317,369.985138 626.460083,369.835724 626.549438,369.891510 
	C626.638794,369.947296 626.611572,370.315613 626.611572,370.315613 
	C626.611572,370.315613 626.294434,370.260101 626.303345,370.122620 
z"/>
<path fill="#325B1D" opacity="1.000000" stroke="none" 
	d="
M628.515869,369.744263 
	C628.565674,369.674286 628.530823,369.727295 628.515991,369.699188 
	C628.501221,369.671082 628.466003,369.814270 628.515869,369.744263 
z"/>
<path fill="#21BD5A" opacity="1.000000" stroke="none" 
	d="
M720.156860,446.012573 
	C720.137268,446.034851 720.237976,445.816742 720.237976,445.816742 
	C720.237976,445.816742 720.017090,445.969818 720.123047,445.966187 
	C720.228943,445.962555 720.176453,445.990295 720.156860,446.012573 
z"/>
<path fill="#000000" opacity="1.000000" stroke="none" 
	d="
M759.995850,639.661499 
	C758.529663,644.417358 756.891846,648.831848 755.107300,653.564148 
	C749.602966,654.953674 744.245300,656.025513 737.803345,657.314209 
	C737.803345,646.108154 737.803345,636.428650 737.803345,626.571777 
	C747.894775,624.056213 756.555481,628.856995 759.995850,639.661499 
z"/>
<path fill="#000000" opacity="1.000000" stroke="none" 
	d="
M662.026611,627.541626 
	C666.085144,627.397400 670.276550,627.100342 674.138306,628.089844 
	C680.708740,629.773315 683.960999,634.804321 684.003113,641.698730 
	C684.033264,646.646057 684.112671,651.593079 684.524414,656.787476 
	C684.494141,657.680115 684.109619,658.325439 683.381348,658.926086 
	C677.348267,657.921082 671.667358,656.905151 665.963928,656.037048 
	C664.393433,655.797974 662.755676,656.000610 661.008484,656.000610 
	C661.008484,648.901978 661.008484,642.408203 661.033691,635.524963 
	C661.376282,632.746216 661.693726,630.356812 662.026611,627.541626 
z"/>
</svg>